<?xml version="1.0" encoding="UTF-8"?>
<svg version="1.1" xmlns="http://www.w3.org/2000/svg" width="80" height="80">
<path d="M0 0 C1.68222656 -0.05607422 1.68222656 -0.05607422 3.3984375 -0.11328125 C7.27124158 0.39777885 8.9022133 1.56421904 11.625 4.3125 C11.625 4.9725 11.625 5.6325 11.625 6.3125 C12.346875 6.18875 13.06875 6.065 13.8125 5.9375 C17.21957813 6.39177708 18.4784471 7.63120669 20.57983398 10.2890625 C22.71276065 14.41840055 22.21380116 18.96393179 22.0625 23.5 C22.05669922 24.49708984 22.05089844 25.49417969 22.04492188 26.52148438 C21.9210697 33.86839545 21.9210697 33.86839545 19.625 37.3125 C18.965 37.3125 18.305 37.3125 17.625 37.3125 C17.5425 38.199375 17.46 39.08625 17.375 40 C16.52297373 43.76311603 15.07699047 45.40076132 12.625 48.3125 C11.84666466 50.49464568 11.84666466 50.49464568 11.625 52.3125 C12.82125 52.395 14.0175 52.4775 15.25 52.5625 C22.06573815 53.45046589 26.17965527 57.42668228 30.3671875 62.58984375 C33.88066551 67.40178103 33.625 70.07867824 33.625 76.3125 C12.505 76.3125 -8.615 76.3125 -30.375 76.3125 C-30.375 68.71229557 -29.66431307 64.81469137 -24.50390625 59.3203125 C-20.19989877 55.39870266 -16.55142336 52.45367437 -10.5625 52.1875 C-9.840625 52.22875 -9.11875 52.27 -8.375 52.3125 C-9.45446538 49.25401475 -10.63668962 46.93535907 -12.5 44.25 C-14.375 41.3125 -14.375 41.3125 -14.375 37.3125 C-15.365 36.9825 -16.355 36.6525 -17.375 36.3125 C-19.28860426 32.48529148 -18.64683213 27.83548009 -18.6875 23.625 C-18.71650391 22.64337891 -18.74550781 21.66175781 -18.77539062 20.65039062 C-18.83097515 14.27527308 -18.14976776 10.49936154 -14.375 5.3125 C-9.71847269 0.9966942 -6.25800066 0.13604349 0 0 Z " fill="#F3CC84" transform="translate(38.375,1.6875)"/>
<path d="M0 0 C0.2475 0.78375 0.495 1.5675 0.75 2.375 C1.77069024 5.02419575 1.77069024 5.02419575 3.6875 6.3125 C7.84700137 7.54910851 11.62683455 7.33566267 15.8125 6.3125 C18.61713933 4.6297164 19.10768411 3.0825458 20 0 C27.66931154 0.52891804 32.02889854 2.64888751 37.25 8.4375 C41.64150667 13.85215874 42 16.72578171 42 24 C20.88 24 -0.24 24 -22 24 C-22 16.39979557 -21.28931307 12.50219137 -16.12890625 7.0078125 C-11.07539315 2.40328828 -7.04052262 -0.40231558 0 0 Z " fill="#82AEE7" transform="translate(30,54)"/>
<path d="M0 0 C1.68222656 -0.05607422 1.68222656 -0.05607422 3.3984375 -0.11328125 C7.27124158 0.39777885 8.9022133 1.56421904 11.625 4.3125 C11.625 4.9725 11.625 5.6325 11.625 6.3125 C12.346875 6.18875 13.06875 6.065 13.8125 5.9375 C17.21957813 6.39177708 18.4784471 7.63120669 20.57983398 10.2890625 C22.71276065 14.41840055 22.21380116 18.96393179 22.0625 23.5 C22.05669922 24.49708984 22.05089844 25.49417969 22.04492188 26.52148438 C21.9210697 33.86839545 21.9210697 33.86839545 19.625 37.3125 C18.965 37.3125 18.305 37.3125 17.625 37.3125 C17.5425 38.199375 17.46 39.08625 17.375 40 C16.625 43.3125 16.625 43.3125 14.625 45.75 C12.14816123 48.92344967 11.93529548 51.35623265 11.625 55.3125 C11.295 55.3125 10.965 55.3125 10.625 55.3125 C10.625 53.3325 10.625 51.3525 10.625 49.3125 C8.15 49.8075 8.15 49.8075 5.625 50.3125 C6.388125 49.714375 7.15125 49.11625 7.9375 48.5 C11.40872137 45.67458726 13.97239369 43.52287459 15.625 39.3125 C15.86922617 36.63737148 15.99509454 34.11097611 16 31.4375 C16.03673828 30.39529297 16.03673828 30.39529297 16.07421875 29.33203125 C16.10459109 23.95612669 14.84821939 21.37655923 11.625 17.3125 C8.6444898 17.95548647 6.16419753 18.96156789 3.4375 20.3125 C-0.59921867 22.17045992 -4.10711657 22.83637131 -8.52734375 23.0390625 C-10.6212056 23.16139227 -10.6212056 23.16139227 -12.375 25.3125 C-13.0393031 31.26805458 -13.57572352 38.03693453 -10.75 43.5 C-8.17990732 46.5435308 -6.06842339 47.88549551 -2.375 49.3125 C-3.86 49.8075 -3.86 49.8075 -5.375 50.3125 C-6.035 49.9825 -6.695 49.6525 -7.375 49.3125 C-7.375 51.2925 -7.375 53.2725 -7.375 55.3125 C-7.705 55.3125 -8.035 55.3125 -8.375 55.3125 C-8.4575 54.260625 -8.54 53.20875 -8.625 52.125 C-9.44752957 47.94380804 -10.73402992 46.53118229 -13.375 43.3125 C-14.125 40 -14.125 40 -14.375 37.3125 C-15.365 36.9825 -16.355 36.6525 -17.375 36.3125 C-19.28860426 32.48529148 -18.64683213 27.83548009 -18.6875 23.625 C-18.71650391 22.64337891 -18.74550781 21.66175781 -18.77539062 20.65039062 C-18.83097515 14.27527308 -18.14976776 10.49936154 -14.375 5.3125 C-9.71847269 0.9966942 -6.25800066 0.13604349 0 0 Z " fill="#9C6A48" transform="translate(38.375,1.6875)"/>
<path d="M0 0 C1.06927734 0.12568359 1.06927734 0.12568359 2.16015625 0.25390625 C7.69019573 0.84189161 12.54028471 1.09194306 18 0 C18 2.64 18 5.28 18 8 C13.45940437 10.65790964 10.25927594 11.57373919 5 11 C2.0625 10 2.0625 10 0 8 C-0.43015 5.20402501 -0.23400793 2.85489675 0 0 Z " fill="#CFAE6E" transform="translate(31,51)"/>
<path d="M0 0 C0.66 0 1.32 0 2 0 C2.25 6.625 2.25 6.625 0 10 C-0.66 10 -1.32 10 -2 10 C-2.0825 10.886875 -2.165 11.77375 -2.25 12.6875 C-3 16 -3 16 -5 18.4375 C-7.47683877 21.61094967 -7.68970452 24.04373265 -8 28 C-8.33 28 -8.66 28 -9 28 C-9 26.02 -9 24.04 -9 22 C-10.65 22.33 -12.3 22.66 -14 23 C-13.236875 22.401875 -12.47375 21.80375 -11.6875 21.1875 C-8.24967008 18.38926634 -5.91052762 16.41813227 -4.39453125 12.20703125 C-4.13349609 11.49482422 -3.87246094 10.78261719 -3.60351562 10.04882812 C-3.34248047 9.31083984 -3.08144531 8.57285156 -2.8125 7.8125 C-2.53986328 7.06291016 -2.26722656 6.31332031 -1.98632812 5.54101562 C-1.31673904 3.69670884 -0.65736279 1.84869988 0 0 Z " fill="#A5874E" transform="translate(58,29)"/>
<path d="M0 0 C4.04829358 3.29730579 4.97509795 8.09607623 6.62109375 12.87109375 C8.68891343 17.5632285 11.90078049 20.07198606 16 23 C14.35 22.67 12.7 22.34 11 22 C11 23.98 11 25.96 11 28 C10.67 28 10.34 28 10 28 C9.87625 26.4221875 9.87625 26.4221875 9.75 24.8125 C8.92747043 20.63130804 7.64097008 19.21868229 5 16 C4.25 12.6875 4.25 12.6875 4 10 C3.01 9.67 2.02 9.34 1 9 C-0.4783226 6.04335481 -0.06032783 3.25770263 0 0 Z " fill="#A5884E" transform="translate(20,29)"/>
</svg>
